
        <svg xmlns="http://www.w3.org/2000/svg" xmlns:xlink="http://www.w3.org/1999/xlink" version="1.1" width="3162.0806633999246" height="1026.7465232519687" viewBox="0 0 3162.0806633999246 1026.7465232519687">
			
			<g transform="scale(8.104033169996232) translate(10, 10)">
				<defs id="SvgjsDefs7889"/><g id="SvgjsG7890" featureKey="2ou6gm-0" transform="matrix(1.4696382428940566,0,0,1.4696382428940566,-13.22674418604651,-12.785852432867044)" fill="#000"><polygon xmlns="http://www.w3.org/2000/svg" points="71,48.7 71,18.2 54.8,9 38.7,9 63,22.8 63,36.7 63,53.3 "/><polygon xmlns="http://www.w3.org/2000/svg" points="29,66 54.8,81 54.7,81 55.1,81.3 71.7,71.7 79.7,57.8 55.3,72 29,56.8 "/><polygon xmlns="http://www.w3.org/2000/svg" points="61.2,57 61.3,57 46.9,65.2 54.8,69.8 81,54.5 81,35.2 73,21.3 73,49.8 "/><polygon xmlns="http://www.w3.org/2000/svg" points="61,23.9 34.8,8.7 18.2,18.3 10.2,32.3 35,18 47,25 46.8,25 61,33.2 "/><polygon xmlns="http://www.w3.org/2000/svg" points="35.2,20.3 9,35.6 9,54.8 17,68.7 17,40.2 28.8,33.2 28.8,33.2 43.2,24.9 "/><polygon xmlns="http://www.w3.org/2000/svg" points="19,41.3 19,71.8 35.2,81 51.4,81 27,67.2 27,53.3 27,36.7 "/></g><g id="SvgjsG7891" featureKey="kZnDdN-0" transform="matrix(1.3644727165329642,0,0,1.3644727165329642,124.36263267509732,33.00419034957136)" fill="#000"><path d="M5.76 6 c3.14 0 4.96 1.92 4.96 4.52 s-1.82 4.44 -4.96 4.44 l-2.9 0 l0 5.04 l-1.66 0 l0 -14 l4.56 0 z M5.72 13.48 c2.02 0 3.34 -1.04 3.34 -2.96 c0 -1.94 -1.32 -2.96 -3.34 -2.96 l-2.86 0 l0 5.92 l2.86 0 z M17.34 9.42 c1.84 0 3.26 1.02 3.74 2.14 l0 -1.96 l1.64 0 l0 10.4 l-1.64 0 l0 -2 c-0.48 1.2 -1.9 2.2 -3.74 2.2 c-2.36 0 -5.22 -1.78 -5.22 -5.4 c0 -3.58 2.86 -5.38 5.22 -5.38 z M17.52 10.88 c-1.76 0 -3.8 1.3 -3.8 3.92 c0 2.64 2.04 3.94 3.8 3.94 c1.78 0 3.64 -1.26 3.64 -3.94 c0 -2.66 -1.86 -3.92 -3.64 -3.92 z M30.5 9.44 c0.18 0 0.34 0 0.5 0.04 l0 1.54 c-0.16 -0.04 -0.34 -0.04 -0.48 -0.04 c-1.98 0 -3.6 1.42 -3.88 3.76 l0 5.26 l-1.64 0 l0 -10.4 l1.64 0 l0 2.74 c0.38 -1.54 1.8 -2.9 3.86 -2.9 z M37.52 9.42 c1.84 0 3.26 1.02 3.74 2.14 l0 -1.96 l1.64 0 l0 10.4 l-1.64 0 l0 -2 c-0.48 1.2 -1.9 2.2 -3.74 2.2 c-2.36 0 -5.22 -1.78 -5.22 -5.4 c0 -3.58 2.86 -5.38 5.22 -5.38 z M37.7 10.88 c-1.76 0 -3.8 1.3 -3.8 3.92 c0 2.64 2.04 3.94 3.8 3.94 c1.78 0 3.64 -1.26 3.64 -3.94 c0 -2.66 -1.86 -3.92 -3.64 -3.92 z M53.7 5.859999999999999 l1.64 0 l0 6.18 l0 7.96 l-1.64 0 l0 -2 c-0.48 1.2 -1.9 2.2 -3.74 2.2 c-2.36 0 -5.22 -1.78 -5.22 -5.4 c0 -3.58 2.86 -5.38 5.22 -5.38 c1.84 0 3.26 1.02 3.74 2.14 l0 -5.7 z M50.14 18.74 c1.78 0 3.64 -1.26 3.64 -3.94 c0 -2.66 -1.86 -3.92 -3.64 -3.92 c-1.76 0 -3.8 1.3 -3.8 3.92 c0 2.64 2.04 3.94 3.8 3.94 z M59.26 5.859999999999999 l0 1.46 l-1.64 0 l0 -1.46 l1.64 0 z M59.26 9.6 l0 10.4 l-1.64 0 l0 -10.4 l1.64 0 z M70.06 9.6 l1.64 0 l0 10.4 c0 3.14 -2.76 4.12 -4.76 4.12 c-1.6 0 -2.62 -0.42 -3.12 -0.78 l0 -1.4 c0.5 0.36 1.52 0.78 3.12 0.78 c1.8 0 3.12 -0.98 3.12 -2.72 l0 -2 c-0.48 1.2 -1.9 2.2 -3.74 2.2 c-2.36 0 -5.22 -1.78 -5.22 -5.4 c0 -3.58 2.86 -5.38 5.22 -5.38 c1.84 0 3.26 1.02 3.74 2.14 l0 -1.96 z M66.5 18.74 c1.78 0 3.64 -1.26 3.64 -3.94 c0 -2.66 -1.86 -3.92 -3.64 -3.92 c-1.76 0 -3.8 1.3 -3.8 3.92 c0 2.64 2.04 3.94 3.8 3.94 z M86.42 9.44 c1.88 0 3.86 1.18 3.86 4.5 l0 6.06 l-1.62 0 l0 -6.1 c0 -2.04 -1.08 -3.02 -2.64 -3.02 c-1.76 0 -2.8 1.46 -3.08 2.94 l0 6.18 l-1.62 0 l0 -6.1 c0 -2.04 -1.26 -3.02 -2.66 -3.02 c-1.86 0 -2.82 1.58 -3.04 2.94 l0 6.18 l-1.64 0 l0 -10.4 l1.64 0 l0 2.44 c0.1 -0.74 1.12 -2.6 3.36 -2.6 c1.38 0 3.02 0.78 3.66 2.62 c0.36 -1.08 1.62 -2.62 3.78 -2.62 z M100.04 6 l0 14 l-1.66 0 l0 -14 l1.66 0 z M107.76 9.44 c2.02 0 3.98 1.3 3.98 4.52 l0 6.04 l-1.64 0 l0 -6 c0 -2.18 -1.14 -3.12 -2.68 -3.12 c-1.86 0 -3.14 1.72 -3.4 2.98 l0 6.14 l-1.64 0 l0 -10.4 l1.64 0 l0 2.42 c0.2 -0.72 1.46 -2.58 3.74 -2.58 z M115.42000000000002 5.859999999999999 l0 1.46 l-1.64 0 l0 -1.46 l1.64 0 z M115.42000000000002 9.6 l0 10.4 l-1.64 0 l0 -10.4 l1.64 0 z M122.42000000000002 10.98 l-2.2 0 l0 6.7 c0 0.62 0.24 1 0.84 1 c0.52 0 0.9 -0.12 1.34 -0.32 l0 1.4 c-0.44 0.22 -0.96 0.36 -1.78 0.36 c-1.06 0 -2.02 -0.48 -2.02 -2.3 l0 -6.84 l-1.44 0 l0 -1.38 l1.44 0 l0 -2.44 l1.62 0 l0 2.44 l2.2 0 l0 1.38 z M125.90000000000002 5.859999999999999 l0 1.46 l-1.64 0 l0 -1.46 l1.64 0 z M125.90000000000002 9.6 l0 10.4 l-1.64 0 l0 -10.4 l1.64 0 z M132.96 9.42 c1.84 0 3.26 1.02 3.74 2.14 l0 -1.96 l1.64 0 l0 10.4 l-1.64 0 l0 -2 c-0.48 1.2 -1.9 2.2 -3.74 2.2 c-2.36 0 -5.22 -1.78 -5.22 -5.4 c0 -3.58 2.86 -5.38 5.22 -5.38 z M133.14000000000001 10.88 c-1.76 0 -3.8 1.3 -3.8 3.92 c0 2.64 2.04 3.94 3.8 3.94 c1.78 0 3.64 -1.26 3.64 -3.94 c0 -2.66 -1.86 -3.92 -3.64 -3.92 z M142.26000000000002 5.859999999999999 l0 14.14 l-1.64 0 l0 -14.14 l1.64 0 z M146.18 5.859999999999999 l0 1.46 l-1.64 0 l0 -1.46 l1.64 0 z M146.18 9.6 l0 10.4 l-1.64 0 l0 -10.4 l1.64 0 z M157.1 9.6 l-6.56 8.94 l6.36 0 l0 1.46 l-9.08 0 l6.56 -8.96 l-6 0 l0 -1.44 l8.72 0 z M163.02 9.42 c2.36 0 5.52 1.8 5.1 5.98 l-8.78 0 c0.26 2.28 2.04 3.4 3.92 3.4 c1.44 0 2.36 -0.4 3.14 -1.16 l0.96 0.88 c-0.94 1.12 -2.3 1.68 -4.12 1.68 c-2.68 0 -5.54 -1.8 -5.54 -5.38 c0 -3.6 2.96 -5.4 5.32 -5.4 z M163.02 10.84 c-1.54 0 -3.38 1.1 -3.68 3.34 l7.34 0 c-0.2 -2.24 -2.1 -3.34 -3.66 -3.34 z M178.52 5.859999999999999 l1.64 0 l0 6.18 l0 7.96 l-1.64 0 l0 -2 c-0.48 1.2 -1.9 2.2 -3.74 2.2 c-2.36 0 -5.22 -1.78 -5.22 -5.4 c0 -3.58 2.86 -5.38 5.22 -5.38 c1.84 0 3.26 1.02 3.74 2.14 l0 -5.7 z M174.96 18.74 c1.78 0 3.64 -1.26 3.64 -3.94 c0 -2.66 -1.86 -3.92 -3.64 -3.92 c-1.76 0 -3.8 1.3 -3.8 3.92 c0 2.64 2.04 3.94 3.8 3.94 z"/></g>
			</g>
		</svg>
	